<?xml version="1.0" encoding="UTF-8" standalone="no"?>
<svg
   xmlns:dc="http://purl.org/dc/elements/1.1/"
   xmlns:cc="http://creativecommons.org/ns#"
   xmlns:rdf="http://www.w3.org/1999/02/22-rdf-syntax-ns#"
   xmlns:svg="http://www.w3.org/2000/svg"
   xmlns="http://www.w3.org/2000/svg"
   viewBox="0 0 401.35999 128.33333"
   height="128.33333"
   width="401.35999"
   xml:space="preserve"
   id="svg2"
   version="1.1"><metadata
     id="metadata8"><rdf:RDF><cc:Work
         rdf:about=""><dc:format>image/svg+xml</dc:format><dc:type
           rdf:resource="http://purl.org/dc/dcmitype/StillImage" /></cc:Work></rdf:RDF></metadata><defs
     id="defs6" /><g
     transform="matrix(1.3333333,0,0,-1.3333333,0,128.33333)"
     id="g10"><g
       transform="scale(0.1)"
       id="g12"><path
         id="path14"
         style="fill:#040606;fill-opacity:1;fill-rule:nonzero;stroke:none"
         d="m 675.953,455.273 c 5.348,13.25 14.18,22.235 29.098,28.739 14.91,6.418 36.058,9.707 64.097,9.687 H 884.41 v -22.265 c 0.028,-26.543 -5.058,-56.465 -21.058,-79.024 -8.008,-11.308 -18.649,-20.918 -33.133,-27.851 -14.489,-6.914 -32.91,-11.172 -56.418,-11.172 h -18.59 c -23.941,-0.02 -45.402,5.82 -60.383,17.109 -14.926,11.328 -24.074,27.609 -24.187,51.66 0,13.282 1.781,24.258 5.312,33.117 z M 882.422,759.09 c -25.063,11.129 -56.934,17.457 -97.461,17.457 C 721.41,776.602 680.051,759.578 653.762,734.359 627.461,709.16 616.813,676.68 612.023,647.5 l -0.105,-0.602 v -0.601 l -0.371,-1.879 -0.309,-1.41 c -0.086,-0.559 -0.226,-1.051 -0.246,-2.309 -0.031,-5.832 2.039,-11.453 6.031,-15.41 3.969,-4 9.586,-6.062 15.411,-6.031 h 40 c 6.375,-0.117 12.07,2.621 15.324,6.43 3.32,3.742 4.703,7.785 5.742,10.792 l 0.152,0.469 0.086,0.5 c 1.793,9.403 4.16,17.922 7.645,25.289 5.258,11.078 12.644,19.668 25.418,26.11 12.769,6.402 31.328,10.398 58.16,10.39 23.445,0 41.191,-3.511 54.531,-9.308 19.946,-8.758 30.574,-22.25 37.047,-39.512 6.383,-17.238 7.891,-38.289 7.871,-59.93 V 566.367 H 767.301 c -43.551,-0.039 -87.621,-6.73 -121.692,-28.379 -17.011,-10.832 -31.41,-25.519 -41.39,-44.718 -10,-19.18 -15.567,-42.715 -15.559,-71.114 -0.082,-47.781 17.153,-84.531 45.797,-108.613 28.613,-24.121 67.852,-35.605 111.449,-35.605 h 18.598 c 28.086,0.019 56.144,6.269 80.027,18.496 15.496,7.941 29.219,18.515 39.879,31.562 v -17.441 c -0.019,-6.387 2.328,-12.442 6.621,-16.7 4.258,-4.296 10.309,-6.64 16.699,-6.621 h 36.258 c 6.153,0 11.942,2.383 16.25,6.504 4.325,4.121 7.09,10.137 7.071,16.817 v 278.066 c -0.047,40.899 -3.797,87.508 -29.09,124.777 -12.629,18.59 -30.746,34.59 -55.797,45.692" /><path
         id="path16"
         style="fill:#040606;fill-opacity:1;fill-rule:nonzero;stroke:none"
         d="m 1289.01,767.25 h -97.58 v 97.59 c -0.15,12.89 -10.91,23.23 -24.24,23.308 h -36.28 c -6.67,0.02 -12.7,-2.75 -16.8,-7.07 -4.13,-4.312 -6.5,-10.098 -6.5,-16.238 v -35.344 c 0.01,-14.144 -1.43,-25.117 -4.06,-33.348 -1.96,-6.179 -4.54,-10.796 -7.69,-14.441 -4.72,-5.398 -10.91,-8.91 -19.73,-11.258 -8.78,-2.308 -20.02,-3.207 -33.56,-3.199 -6.68,0.02 -12.7,-2.762 -16.81,-7.07 -4.13,-4.313 -6.51,-10.114 -6.51,-16.239 v -32.55 c -0.05,-6.383 2.4,-12.442 6.85,-16.461 4.43,-4.051 10.35,-5.942 16.47,-5.93 h 64.1 V 458.418 c 0,-27.434 1.27,-51.672 5.32,-72.883 3.04,-15.898 7.67,-30.117 14.63,-42.539 10.41,-18.672 26.32,-33.027 48.51,-42.187 22.18,-9.2 50.5,-13.555 86.92,-13.575 h 26.96 c 6.15,0 11.94,2.383 16.25,6.504 4.32,4.121 7.09,10.137 7.07,16.817 v 33.476 c 0.02,6.66 -2.75,12.696 -7.08,16.797 -4.3,4.141 -10.1,6.504 -16.24,6.504 h -18.59 c -18.94,0 -33.39,1.406 -43.99,4.492 -7.97,2.324 -13.71,5.461 -18.14,9.59 -6.58,6.133 -10.85,15.031 -13.49,28.906 -2.61,13.809 -3.38,32.168 -3.37,55.539 V 689 h 97.58 c 5.84,0.008 11.57,1.926 16.01,5.828 4.46,3.852 7.36,9.895 7.31,16.563 v 32.55 c -0.02,6.438 -2.81,12.176 -6.96,16.336 -4.17,4.161 -9.91,6.953 -16.36,6.973" /><path
         id="path18"
         style="fill:#040606;fill-opacity:1;fill-rule:nonzero;stroke:none"
         d="m 1454.62,570.957 c 0.02,41.793 12.3,73.711 32.18,95.234 19.92,21.489 47.64,33.008 80.28,33.047 33.14,-0.05 60.84,-11.566 80.64,-33.039 19.75,-21.492 31.82,-53.422 31.84,-95.242 v -5.527 h -224.94 z m 112.46,205.59 c -55.69,0.031 -105.49,-19.781 -141.16,-56.688 -35.71,-36.902 -57.01,-90.613 -56.98,-157.273 v -70.684 c -0.03,-66.687 21.52,-120.41 57.46,-157.285 35.91,-36.922 85.93,-56.699 141.61,-56.679 33.26,0.019 71.51,7.91 105.73,28.515 34.19,20.567 64.16,54.082 80,104.121 l 0.03,0.117 0.02,0.098 c 0.86,2.988 1.72,5.371 2.5,7.832 0.77,2.414 1.51,5.039 1.51,8.184 0.02,5.019 -1.88,9.883 -5.33,13.32 -3.42,3.457 -8.29,5.352 -13.32,5.332 h -42.8 c -6.4,0.078 -11.91,-2.5 -15.39,-5.898 -3.51,-3.379 -5.31,-7.168 -6.44,-9.961 l -0.04,-0.078 c -13.48,-34.473 -31.64,-52.481 -50.43,-62.481 -18.83,-9.961 -38.87,-11.797 -56.04,-11.797 -32.56,0.039 -60.58,11.992 -80.78,33.555 -20.15,21.562 -32.59,53.027 -32.61,92.871 v 12.961 h 285.44 c 6.14,0.008 12.07,1.816 16.7,5.73 4.65,3.848 7.6,9.981 7.54,16.653 v 46.504 c 0.02,65.312 -21.29,118.765 -56.83,155.742 -35.53,37 -85.1,57.32 -140.39,57.289" /><path
         id="path20"
         style="fill:#040606;fill-opacity:1;fill-rule:nonzero;stroke:none"
         d="m 2445.32,761.02 c -23.11,10.308 -51.15,15.527 -84.92,15.527 -35.51,0.019 -66.08,-7.957 -91.45,-23.406 -21.68,-13.192 -39.41,-31.805 -53.42,-54.934 -13.47,23.539 -31.29,42.203 -53.08,55.305 -25.53,15.336 -56.27,23.047 -91.29,23.035 -35.76,0.031 -63.67,-9.746 -84.85,-23.93 -12.75,-8.539 -23.02,-18.617 -31.34,-28.988 v 20.312 c 0,6.125 -2.39,11.926 -6.51,16.239 -4.12,4.308 -10.13,7.09 -16.81,7.07 h -39.07 c -6.66,0.039 -12.69,-2.859 -16.56,-7.309 -3.89,-4.453 -5.82,-10.16 -5.82,-16 V 310.555 c 0,-6.133 1.88,-12.051 5.94,-16.465 4.02,-4.453 10.08,-6.914 16.44,-6.856 h 39.07 c 6.38,-0.019 12.44,2.325 16.69,6.621 4.3,4.258 6.65,10.293 6.63,16.7 V 557 c -0.04,42.578 6.11,78.738 21.83,103.27 7.87,12.308 17.99,21.847 31.31,28.527 13.32,6.652 30,10.43 50.96,10.441 19.9,0 35.88,-3.199 48.63,-9.086 19.06,-8.894 31.56,-23.664 39.92,-45.683 8.28,-21.981 11.84,-51.11 11.82,-86.539 V 310.555 c -0.02,-6.407 2.32,-12.442 6.62,-16.7 4.28,-4.296 10.31,-6.64 16.7,-6.621 h 39.06 c 6.39,-0.019 12.44,2.325 16.7,6.621 4.28,4.258 6.62,10.313 6.6,16.7 V 557.93 c -0.04,46.297 6.82,82.117 22.68,105.429 7.91,11.688 17.97,20.457 31.05,26.528 13.07,6.051 29.34,9.351 49.46,9.351 21.48,0 38.24,-3.687 51.34,-10.179 19.57,-9.758 31.7,-25.739 39.5,-48.067 7.71,-22.281 10.48,-50.699 10.46,-83.062 V 310.555 c -0.02,-6.407 2.31,-12.344 6.39,-16.582 4.06,-4.278 9.86,-6.758 16,-6.739 h 39.06 c 6.41,0 12.44,2.266 16.95,6.407 4.51,4.121 7.33,10.234 7.29,16.914 v 242.726 c -0.06,67.567 -8.73,122.899 -35.49,162.328 -13.36,19.668 -31.39,35.129 -54.49,45.411" /><path
         id="path22"
         style="fill:#040606;fill-opacity:1;fill-rule:nonzero;stroke:none"
         d="m 2711.68,455.273 c 5.38,13.25 14.18,22.235 29.13,28.739 14.9,6.418 36.07,9.707 64.1,9.687 h 115.25 v -22.265 c 0.04,-26.543 -5.06,-56.465 -21.05,-79.024 -8.01,-11.308 -18.66,-20.918 -33.13,-27.851 -14.49,-6.914 -32.91,-11.172 -56.42,-11.172 h -18.6 c -23.94,-0.02 -45.39,5.82 -60.37,17.109 -14.94,11.328 -24.1,27.609 -24.22,51.66 0,13.282 1.8,24.258 5.31,33.117 z m 262.29,258.125 c -12.64,18.59 -30.74,34.59 -55.8,45.692 -25.06,11.129 -56.93,17.457 -97.46,17.457 -63.56,0.055 -104.9,-16.969 -131.19,-42.188 -26.29,-25.199 -36.98,-57.671 -41.76,-86.859 l -0.1,-0.59 v -0.633 l -0.35,-1.886 -0.31,-1.414 c -0.1,-0.547 -0.24,-1.047 -0.26,-2.278 -0.02,-5.832 2.05,-11.453 6.04,-15.41 3.96,-4 9.59,-6.062 15.41,-6.031 h 40 c 6.39,-0.117 12.07,2.621 15.33,6.43 3.32,3.742 4.71,7.785 5.74,10.792 l 0.16,0.469 0.08,0.5 c 1.79,9.403 4.16,17.922 7.63,25.289 5.28,11.078 12.66,19.668 25.43,26.11 12.78,6.402 31.31,10.398 58.15,10.39 23.46,0 41.19,-3.511 54.53,-9.308 19.96,-8.758 30.59,-22.25 37.05,-39.512 6.39,-17.238 7.89,-38.289 7.87,-59.93 v -24.121 h -117.11 c -43.53,-0.039 -87.62,-6.73 -121.68,-28.379 -17.01,-10.832 -31.4,-25.519 -41.38,-44.718 -10,-19.18 -15.57,-42.715 -15.57,-71.114 -0.08,-47.781 17.15,-84.531 45.8,-108.613 28.59,-24.121 67.83,-35.605 111.43,-35.605 h 18.61 c 28.08,0.019 56.15,6.269 80.04,18.496 15.49,7.941 29.2,18.515 39.86,31.562 v -17.441 c -0.02,-6.407 2.33,-12.442 6.62,-16.7 4.28,-4.296 10.31,-6.64 16.7,-6.621 h 36.27 c 6.13,0 11.93,2.383 16.23,6.504 4.32,4.121 7.09,10.137 7.07,16.817 v 278.066 c -0.06,40.899 -3.81,87.508 -29.08,124.777" /><path
         id="path24"
         style="fill:#d7232e;fill-opacity:1;fill-rule:nonzero;stroke:none"
         d="m 355.211,399.832 c -25.145,-23.945 -60.09,-40.82 -107.762,-40.867 -40.398,0 -77.09,13.504 -105.308,38.68 -28,25.019 -47.7699,61.671 -54.098,109.023 H 1.67969 L 1.75,506.023 C 8.21875,442.742 33.2539,385.73 74.7031,344.441 116.109,303.152 173.98,277.898 244.656,277.938 c 41.903,0 81.196,10.761 113.684,29.902 l -3.129,91.992" /><path
         id="path26"
         style="fill:#040606;fill-opacity:1;fill-rule:nonzero;stroke:none"
         d="m 85.6797,557.684 v 141.617 c 0.0195,58.429 18.2813,103.828 47.2583,134.707 29.011,30.871 68.933,47.48 113.57,47.512 47.89,-0.04 84.113,-17.512 109.933,-43.047 25.789,-25.543 40.969,-59.434 45.399,-91.832 h 0.012 c 0.57,-5.715 1.859,-10.715 5.437,-14.789 1.793,-2.043 4.172,-3.582 6.633,-4.454 2.461,-0.89 4.961,-1.187 7.441,-1.187 h 49.285 c 4.641,-0.02 9.262,1.375 12.672,4.57 3.45,3.16 5.121,7.797 5.071,12.227 0.027,3.66 -0.078,8.594 -1.981,16.211 -9.551,54.84 -34.398,105.66 -74.597,142.871 -40.204,37.223 -95.754,60.496 -165.305,60.457 C 176.801,962.566 114.934,936.91 70.6992,891.211 26.4492,845.527 -0.0273438,780 0,701.148 V 557.684 h 85.6797" /><path
         id="path28"
         style="fill:#040606;fill-opacity:1;fill-rule:nonzero;stroke:none"
         d="M 464.141,633.32 H 252.102 c -6.672,0.02 -12.704,-2.75 -16.813,-7.062 -4.129,-4.309 -6.512,-10.11 -6.512,-16.25 v -33.477 c -0.027,-6.394 2.321,-12.429 6.621,-16.699 4.27,-4.285 10.309,-6.641 16.704,-6.609 h 152.461 v -29.856 l 5.046,-220.722 c 1.098,-3.321 2.84,-6.368 5.278,-8.79 4.273,-4.296 10.324,-6.64 16.707,-6.621 h 32.547 c 6.402,0 12.453,2.266 16.949,6.407 4.519,4.121 7.328,10.234 7.301,16.914 v 299.453 c -0.137,12.902 -10.918,23.23 -24.25,23.312" /><path
         id="path30"
         style="fill:#d7232e;fill-opacity:1;fill-rule:nonzero;stroke:none"
         d="M 1265.52,31.9727 V 3.94531 h -30.38 V 191.563 h 30.38 V 72.1289 l 54.96,56.7971 h 38.85 l -50.21,-51.7776 57.34,-73.20309 h -39.63 l -38.85,51.26949 -22.46,-23.2421" /><path
         id="path32"
         style="fill:#d7232e;fill-opacity:1;fill-rule:nonzero;stroke:none"
         d="M 1584.36,72.9102 V 3.94531 h -30.38 V 71.0742 c 0,21.9141 -11.63,34.0818 -30.65,34.0818 -10.83,0 -22.71,-6.3474 -32.23,-17.9685 V 3.94531 h -30.65 V 128.926 h 30.65 v -10.313 c 10.84,8.985 23.52,14.278 38.58,14.278 32.76,0 54.68,-23.77 54.68,-59.9808" /><path
         id="path34"
         style="fill:#d7232e;fill-opacity:1;fill-rule:nonzero;stroke:none"
         d="m 1786.95,66.3086 c 0,21.1328 -14.54,37.7934 -35.93,37.7934 -21.66,0 -36.21,-16.6606 -36.21,-37.7934 0,-21.3867 14.55,-38.5742 36.21,-38.5742 21.39,0 35.93,17.1875 35.93,38.5742 z m 30.38,0 C 1817.33,28.2617 1788.8,0 1751.02,0 c -38.06,0 -66.59,28.2617 -66.59,66.3086 0,37.7934 28.53,65.5274 66.59,65.5274 37.78,0 66.31,-27.734 66.31,-65.5274" /><path
         id="path36"
         style="fill:#d7232e;fill-opacity:1;fill-rule:nonzero;stroke:none"
         d="m 2052.42,3.94531 h -26.7 l -25.9,75.83989 -25.88,-75.83989 h -26.69 L 1900.48,128.926 h 33.04 l 26.95,-76.3674 26.41,76.3674 h 25.89 l 26.18,-76.6213 27.2,76.6213 h 33.04 L 2052.42,3.94531" /><path
         id="path38"
         style="fill:#d7232e;fill-opacity:1;fill-rule:nonzero;stroke:none"
         d="m 2465.51,3.94531 h -26.68 l -25.9,75.83989 -25.89,-75.83989 h -26.69 L 2313.58,128.926 h 33.03 l 26.95,-76.3674 26.42,76.3674 h 25.9 l 26.15,-76.6213 27.23,76.6213 h 33.02 L 2465.51,3.94531" /><path
         id="path40"
         style="fill:#d7232e;fill-opacity:1;fill-rule:nonzero;stroke:none"
         d="m 2697.94,66.3086 c 0,21.1328 -14.53,37.7934 -35.94,37.7934 -21.66,0 -36.19,-16.6606 -36.19,-37.7934 0,-21.3867 14.53,-38.5742 36.19,-38.5742 21.41,0 35.94,17.1875 35.94,38.5742 z m 30.39,0 C 2728.33,28.2617 2699.79,0 2662,0 c -38.05,0 -66.58,28.2617 -66.58,66.3086 0,37.7934 28.53,65.5274 66.58,65.5274 37.79,0 66.33,-27.734 66.33,-65.5274" /><path
         id="path42"
         style="fill:#d7232e;fill-opacity:1;fill-rule:nonzero;stroke:none"
         d="m 2963.41,3.94531 h -26.7 l -25.89,75.83989 -25.9,-75.83989 h -26.68 L 2811.47,128.926 h 33.03 l 26.96,-76.3674 26.41,76.3674 h 25.89 l 26.17,-76.6213 27.21,76.6213 h 33.04 L 2963.41,3.94531" /></g></g></svg>